<?xml version="1.0" standalone="no"?>
<!DOCTYPE svg PUBLIC "-//W3C//DTD SVG 20010904//EN"
 "http://www.w3.org/TR/2001/REC-SVG-20010904/DTD/svg10.dtd">
<svg version="1.0" xmlns="http://www.w3.org/2000/svg"
 width="40.000000pt" height="40.000000pt" viewBox="0 0 40.000000 40.000000"
 preserveAspectRatio="xMidYMid meet">

<g transform="translate(0.000000,40.000000) scale(0.100000,-0.100000)"
fill="#000000" stroke="none">
<path d="M0 344 l0 -57 23 34 c12 18 38 44 56 56 l34 23 -57 0 -56 0 0 -56z"/>
<path d="M238 383 c69 -34 104 -114 83 -191 l-12 -46 46 -45 45 -46 0 173 0
172 -97 0 c-97 0 -98 -1 -65 -17z"/>
<path d="M111 326 c-31 -17 -50 -53 -51 -94 0 -44 55 -102 96 -102 73 0 130
78 104 141 -26 61 -93 86 -149 55z"/>
<path d="M0 91 l0 -91 172 0 173 0 -47 47 c-45 45 -47 46 -77 33 -41 -16 -116
-8 -150 17 -14 11 -36 35 -48 53 l-23 33 0 -92z"/>
<path d="M376 15 c-19 -15 -19 -15 2 -15 13 0 22 6 22 15 0 18 0 18 -24 0z"/>
</g>
</svg>
