<?xml version="1.0" standalone="no"?>
<!DOCTYPE svg PUBLIC "-//W3C//DTD SVG 20010904//EN"
 "http://www.w3.org/TR/2001/REC-SVG-20010904/DTD/svg10.dtd">
<svg version="1.0" xmlns="http://www.w3.org/2000/svg"
 width="300.000000pt" height="300.000000pt" viewBox="0 0 300.000000 300.000000"
 preserveAspectRatio="xMidYMid meet">

<g transform="translate(0.000000,300.000000) scale(0.100000,-0.100000)"
fill="#000000" stroke="none">
<path d="M1370 1977 c-111 -31 -227 -118 -288 -215 -97 -152 -97 -372 -1 -523
47 -73 131 -146 215 -186 67 -32 87 -37 173 -41 73 -3 112 0 157 13 221 64
364 250 364 475 0 195 -108 362 -287 448 -73 34 -85 37 -183 39 -63 2 -123 -2
-150 -10z m202 -243 c63 -44 93 -103 93 -184 -1 -41 -7 -76 -17 -96 l-17 -31
65 -64 c69 -69 82 -92 64 -114 -22 -27 -45 -16 -114 54 l-69 70 -30 -15 c-52
-27 -127 -29 -183 -5 -93 42 -134 102 -134 201 0 73 16 114 61 159 49 50 83
62 166 58 61 -2 78 -7 115 -33z"/>
<path d="M1380 1681 c-94 -50 -107 -165 -26 -240 35 -33 116 -41 163 -16 100
54 96 205 -7 257 -45 23 -87 23 -130 -1z"/>
</g>
</svg>
